<svg width="1440" height="320" xmlns="http://www.w3.org/2000/svg">
  <path fill="#00b8c4" fill-opacity="0.05" d="M0,160L48,144C96,128,192,96,288,96C384,96,480,128,576,149.3C672,171,768,181,864,165.3C960,149,1056,107,1152,101.3C1248,96,1344,128,1392,144L1440,160L1440,320L1392,320C1344,320,1248,320,1152,320C1056,320,960,320,864,320C768,320,672,320,576,320C480,320,384,320,288,320C192,320,96,320,48,320L0,320Z"></path>
  <path fill="#1a73e8" fill-opacity="0.05" d="M0,32L48,53.3C96,75,192,117,288,122.7C384,128,480,96,576,85.3C672,75,768,85,864,106.7C960,128,1056,160,1152,165.3C1248,171,1344,149,1392,138.7L1440,128L1440,320L1392,320C1344,320,1248,320,1152,320C1056,320,960,320,864,320C768,320,672,320,576,320C480,320,384,320,288,320C192,320,96,320,48,320L0,320Z"></path>
</svg> 